<svg version="1.2" baseProfile="tiny-ps" xmlns="http://www.w3.org/2000/svg" viewBox="0 0 350 240" width="350" height="240">
	<title>GoIP-logo</title>
	<style>
		tspan { white-space:pre }
		.shp0 { fill: #89c113 } 
		.shp1 { fill: #045584 } 
		.shp2 { fill: #8ac213 } 
	</style>
	<path fill-rule="evenodd" class="shp0" d="M217.01 106.02C213.81 101.61 210.12 97.98 205.24 95.79C193.27 90.41 175.79 92.48 165.98 104.02C157.34 114.19 155.34 125.86 156.9 138.57C158.11 148.44 163.29 156.11 170.84 162.09C175.24 165.58 180.66 167 186.35 167.27C195.48 167.7 203.72 165.57 210.82 159.37C207.15 169.85 201.32 179 194.13 187.74C204.63 192.46 214.15 198.47 224.27 203.36C231.81 207 239.25 210.81 247.32 213.28C261.66 217.66 273.77 214.11 284.06 203.49C293.25 194.01 300.73 183.14 309.01 172.93C309.97 171.74 310.97 170.59 311.95 169.42C313.21 167.9 314.27 166.59 313.56 164.16C312.71 161.28 315.42 158.54 318.47 158.48C321.43 158.41 323.79 160.73 323.75 163.66C323.71 166.66 320.98 169.35 318.1 168.69C316.19 168.25 315.4 168.96 314.37 170.22C306.62 179.77 299.68 189.93 292.32 199.78C288.78 204.52 284.98 209.03 280.49 212.93C271.49 220.75 261.37 222.57 250.08 219.22C238.81 215.86 228.87 209.81 218.82 203.99C210.91 199.41 202.91 194.98 194.89 190.59C193.15 189.63 192.3 189.72 190.89 191.2C174.52 208.47 154.59 218.97 131.01 222.39C84.23 229.18 38.7 202.44 21.67 158.19C-1.06 99.08 34.93 33.64 96.92 21.34C152.54 10.31 206.66 47.18 216.82 103.03C216.98 103.91 217.57 104.77 217.01 106.02ZM135.61 83.92C135.61 77.99 135.57 72.58 135.63 67.18C135.65 65.68 134.65 65.56 133.63 65.28C122.33 62.12 110.86 60.75 99.18 62.46C82.77 64.87 69.96 73.03 61.31 87.24C54.46 98.49 52.94 110.91 54.19 123.84C56.23 144.8 70.45 161.08 91.01 165.63C108.15 169.42 124.86 166.88 141.36 161.87C142.63 161.48 142.75 160.95 142.61 159.64C141 145.11 140.03 130.59 144.47 116.32C144.87 115.03 144.55 114.57 143.23 114.58C136.75 114.58 130.27 114.57 123.8 114.53C122.43 114.52 121.83 114.96 122.32 116.41C125.78 126.82 125.21 137.61 125.33 148.34C125.34 149.85 124.84 150.53 123.44 150.97C118.54 152.53 113.59 153.99 108.46 154.38C96.59 155.26 86.1 152.31 78.8 142.16C70.54 130.67 69.42 117.69 71.94 104.24C73.86 94 78.85 85.45 87.72 79.7C97.76 73.19 108.61 73.43 119.69 76.63C125.21 78.22 130.47 80.38 135.61 83.92Z" />
	<path fill-rule="evenodd" class="shp1" d="M292.21 63.4C297.3 63.53 303.31 63.17 309.29 64.07C328.66 66.98 336.32 79.29 334.8 97.24C333.49 112.7 325.54 120.21 308.43 123.09C304.11 123.81 299.75 124.31 295.39 124.72C293.86 124.87 293.34 125.24 293.3 126.88C293.06 139.22 293.48 151.51 296.44 163.56C296.94 165.56 296.36 165.76 294.63 165.74C288.63 165.66 282.62 165.66 276.62 165.74C274.85 165.77 274.34 165.49 274.84 163.52C277.1 154.6 278.02 145.52 277.87 136.3C277.59 119.69 278.27 103.08 277.46 86.47C277.12 79.41 276.21 72.41 274.72 65.5C274.34 63.78 274.74 63.34 276.44 63.37C281.4 63.46 286.35 63.4 292.21 63.4ZM293.35 95.26C293.35 101.75 293.41 108.24 293.3 114.72C293.27 116.51 293.74 117.13 295.53 116.8C297.68 116.4 299.88 116.24 302.02 115.81C313.96 113.37 319.2 106.46 318.37 94.27C318.28 92.94 318.17 91.6 317.9 90.3C316.29 82.66 312.7 76.61 304.74 74.18C301.78 73.29 298.71 73.53 295.67 73.4C293.76 73.31 293.27 73.94 293.3 75.81C293.42 82.29 293.35 88.78 293.35 95.26Z" />
	<path class="shp1" d="M255.73 112.58C256.01 124.02 255.29 135.47 256.11 146.91C256.52 152.44 257.4 157.89 258.74 163.25C259.19 165.04 259.22 165.8 257 165.76C250.91 165.62 244.81 165.67 238.72 165.74C237.05 165.76 236.61 165.43 237.06 163.65C239.4 154.35 240.22 144.89 240.15 135.3C240.04 121.28 240.14 107.26 240.11 93.24C240.09 83.87 239.34 74.56 237.07 65.45C236.61 63.6 237.13 63.36 238.74 63.38C244.93 63.44 251.12 63.41 257.31 63.39C258.49 63.39 259.38 63.4 258.94 65.07C255.69 77.47 255.62 90.15 255.73 102.85C255.75 106.09 255.73 109.34 255.73 112.58Z" />
	<path class="shp2" d="M208.37 132.34C208.27 139.37 206.51 145.75 202.21 151.54C196.34 159.43 187.58 157.93 182.16 153.17C175.29 147.13 172.29 139.06 171.59 130.14C171.2 125.2 171.41 120.23 173.25 115.48C174.4 112.5 176.01 109.86 178.31 107.62C183.86 102.19 191.94 102.2 197.58 107.67C205.43 115.29 208.41 122.12 208.37 132.34Z" />
</svg>